PathFileType	4	(X/Y/Z)	 s05c0001.trc
DataRate	CameraRate	NumFrames	NumMarkers	Units	OrigDataRate	OrigDataStartFrame	OrigNumFrames
200	200	6	49	mm	200	1	2000
Frame#	Time	racr			lacr			c7			jug			rlel			rdr			llel			ldr			s2			lic			ric			lasi			rasi			rpsi			lpsi			rgt			lgt			rth1			rth2			rth3			rth4			rlfc			rmfc			rsh1			rsh2			rsh3			rsh4			rlmal			rmmal			rcal			rtoe			rmt5			rmt1			lth1			lth2			lth4			lth3			llfc			lmfc			lsh1			lsh2			lsh3			lsh4			llmal			lmmal			lcal			ltoe			lmt1			lmt5			
		X1	Y1	Z1	X2	Y2	Z2	X3	Y3	Z3	X4	Y4	Z4	X5	Y5	Z5	X6	Y6	Z6	X7	Y7	Z7	X8	Y8	Z8	X9	Y9	Z9	X10	Y10	Z10	X11	Y11	Z11	X12	Y12	Z12	X13	Y13	Z13	X14	Y14	Z14	X15	Y15	Z15	X16	Y16	Z16	X17	Y17	Z17	X18	Y18	Z18	X19	Y19	Z19	X20	Y20	Z20	X21	Y21	Z21	X22	Y22	Z22	X23	Y23	Z23	X24	Y24	Z24	X25	Y25	Z25	X26	Y26	Z26	X27	Y27	Z27	X28	Y28	Z28	X29	Y29	Z29	X30	Y30	Z30	X31	Y31	Z31	X32	Y32	Z32	X33	Y33	Z33	X34	Y34	Z34	X35	Y35	Z35	X36	Y36	Z36	X37	Y37	Z37	X38	Y38	Z38	X39	Y39	Z39	X40	Y40	Z40	X41	Y41	Z41	X42	Y42	Z42	X43	Y43	Z43	X44	Y44	Z44	X45	Y45	Z45	X46	Y46	Z46	X47	Y47	Z47	X48	Y48	Z48	X49	Y49	Z49	
1	0.0050	266.018258	1528.449321	346.429033	253.931922	1534.768570	0.195523	200.198236	1571.135921	169.330584	343.220612	1483.900480	168.738788	233.032894	1282.741008	532.385386	302.181597	1138.227703	741.166218	199.440027	1291.557248	-195.221458	232.534335	1156.071526	-432.398843	173.990349	1035.707742	179.324746	316.362690	1094.949514	30.089333	318.680006	1076.413535	315.779426	369.213479	1029.411212	62.353970	375.516071	1020.363915	283.703127	198.056859	1068.226102	222.226899	195.332946	1072.272542	133.433133	269.504317	923.099514	333.449961	242.302223	953.772068	9.604455	273.014456	824.853379	349.867190	285.129630	735.907910	349.203230	251.121269	655.767525	337.076961	321.734243	732.256519	340.534705	254.400098	507.309166	311.770543	247.167642	506.409169	210.817886	201.437298	409.937948	339.587787	216.829895	322.271047	330.660803	189.479644	241.871509	323.387652	248.796114	323.072399	307.610190	187.790706	109.086054	305.618935	212.165242	123.987627	227.921865	136.741513	62.373939	249.253352	424.665472	80.956619	309.531257	317.331955	44.762787	355.884204	350.588742	46.995871	242.644911	260.053520	821.718579	-11.773005	282.166836	739.535679	-6.688490	318.023485	739.885317	5.861340	257.335642	652.308799	5.289485	245.463517	516.549979	38.615822	238.280359	508.887182	138.514912	194.795186	399.743817	12.485187	210.208610	312.867831	23.355611	178.934349	230.655780	26.946020	242.139668	313.464602	43.586116	183.078037	108.791229	41.732575	211.837287	127.364124	114.971387	136.936770	57.288384	94.059268	425.053443	79.345820	39.349462	351.359477	48.069450	105.903156	312.934937	38.126712	-5.540035	
2	0.0100	266.079946	1528.434360	346.448699	253.966947	1534.750368	0.209152	200.238623	1571.134332	169.322237	343.271024	1483.910667	168.748297	233.019249	1282.945600	532.653685	302.236517	1138.228783	741.180964	199.453782	1291.562233	-195.218021	232.531439	1156.048314	-432.369970	174.049893	1035.665045	179.344042	316.369995	1094.956633	30.085408	318.697006	1076.410135	315.749391	369.225181	1029.397490	62.355728	375.512922	1020.365950	283.721521	198.057539	1068.245538	222.243885	195.358921	1072.266780	133.439948	269.526598	923.095871	333.437563	242.294915	953.775999	9.598477	273.019677	824.858386	349.872001	285.150658	735.902561	349.219083	251.124649	655.764356	337.055839	321.736807	732.252208	340.551461	254.405267	507.308302	311.769067	247.165287	506.415955	210.825178	201.421202	409.930479	339.584224	216.844386	322.272303	330.660591	189.478281	241.865786	323.403555	248.785936	323.074512	307.626705	187.803730	109.095887	305.617962	212.150966	123.983770	227.914686	136.732365	62.376998	249.246937	424.672445	80.940985	309.533771	317.342834	44.778149	355.885482	350.596165	46.990181	242.651326	260.058566	821.726316	-11.786988	282.182038	739.535947	-6.685548	318.050666	739.884256	5.871240	257.365716	652.331459	5.280620	245.469202	516.549204	38.619604	238.299256	508.887369	138.509431	194.798900	399.740543	12.482560	210.200691	312.854357	23.365483	178.925729	230.635388	26.937880	242.144122	313.448431	43.601357	183.081924	108.790704	41.739507	211.828720	127.370116	114.982968	136.941266	57.300924	94.049787	425.053385	79.342323	39.343358	351.363339	48.079982	105.906976	312.933506	38.106098	-5.522421	
3	0.0150	266.125557	1528.433189	346.468169	253.977144	1534.754600	0.230730	200.297078	1571.149873	169.330133	343.303645	1483.894338	168.767912	233.069994	1282.926295	532.670460	302.277146	1138.227408	741.203175	199.472799	1291.566601	-195.213573	232.538232	1156.053328	-432.368614	174.058719	1035.656629	179.344763	316.378854	1094.951138	30.079413	318.704012	1076.406121	315.754713	369.244277	1029.399151	62.362683	375.517881	1020.353082	283.727820	198.085498	1068.242175	222.239923	195.387259	1072.259210	133.451879	269.532010	923.088717	333.445246	242.318464	953.778733	9.594356	273.039210	824.854476	349.880812	285.138511	735.902634	349.222020	251.141008	655.763287	337.070693	321.739353	732.256681	340.569527	254.418299	507.308745	311.786519	247.165287	506.415955	210.825178	201.435583	409.937534	339.589704	216.844755	322.264441	330.651335	189.498882	241.859786	323.396352	248.792370	323.065104	307.629388	187.810531	109.088445	305.620398	212.152605	123.984460	227.910877	136.724615	62.380549	249.240044	424.659629	80.950327	309.533376	317.349766	44.775095	355.888902	350.586273	47.011590	242.635432	260.082289	821.720901	-11.776676	282.193486	739.517649	-6.683820	318.046052	739.880414	5.868710	257.361403	652.332548	5.277027	245.466735	516.559743	38.619575	238.296178	508.912359	138.523988	194.812075	399.735811	12.483658	210.209142	312.845840	23.369076	178.891717	230.649461	26.942311	242.146213	313.458893	43.600636	183.075599	108.791578	41.735491	211.829796	127.372537	114.974490	136.937601	57.289051	94.058461	425.043795	79.336483	39.352339	351.382676	48.080479	105.917587	312.945973	38.121749	-5.538804	
4	0.0200	266.164563	1528.429343	346.474244	254.006802	1534.755470	0.239989	200.073854	1571.653644	169.290647	343.323385	1483.888140	168.787277	233.096343	1283.309234	532.576781	302.327699	1138.234990	741.217120	199.489765	1291.571215	-195.217266	232.474096	1155.886666	-432.388267	174.634390	1035.429637	179.367489	316.534876	1094.873141	30.104021	318.716606	1076.392229	315.766672	369.259735	1029.395691	62.373247	375.534874	1020.358001	283.712132	198.098791	1068.238233	222.239182	195.399415	1072.258995	133.442049	269.548197	923.100654	333.444813	242.573160	953.635294	9.971741	273.042966	824.850101	349.882317	285.224930	735.928210	349.042253	251.145987	655.771382	337.070922	321.740346	732.245280	340.556912	254.406588	507.305971	311.781859	247.152146	506.414573	210.817837	201.422434	409.930102	339.578395	216.932479	322.286581	330.767437	189.452325	241.806175	323.339663	249.018058	323.112603	307.763636	187.303096	109.382036	305.672608	212.864175	124.310399	228.043215	136.732170	62.373948	249.247425	424.664848	80.969723	309.533186	317.342634	44.778302	355.885634	350.596165	46.990181	242.651326	260.241220	821.698941	-11.797106	282.484151	739.270996	-5.436304	318.468900	739.054679	6.881644	257.368021	652.319439	5.287181	245.475460	516.558755	38.626296	238.297085	508.902424	138.520849	194.803618	399.744611	12.491915	210.057771	313.727795	22.608139	178.896872	230.657409	26.942109	242.319257	313.464932	43.481055	183.141542	108.678687	41.742484	211.831929	127.353074	114.973079	136.940856	57.292047	94.062790	425.144647	79.194252	39.385376	351.388112	48.071304	105.913477	312.942757	38.111692	-5.524859	
5	0.0250	265.955691	1528.910585	346.736886	253.950074	1534.923723	0.311614	200.077847	1571.628392	169.345159	343.080049	1483.982944	168.709859	233.211669	1283.102520	532.384442	302.334235	1138.348389	741.359392	199.682924	1291.839152	-195.332647	232.328584	1156.134784	-432.337657	174.669548	1035.536517	179.450668	316.222822	1095.116608	30.114044	318.473338	1076.640189	315.774719	369.470532	1029.898015	62.358070	375.166290	1020.612558	283.807108	198.174156	1068.274324	222.469790	195.529380	1072.300132	133.551412	269.471628	923.348228	333.661184	242.535298	953.618776	10.005191	272.979410	825.073023	350.025073	285.176793	736.190328	349.263692	251.071495	655.967225	337.298129	321.700640	732.486853	340.740012	254.279296	507.546870	311.951961	247.014376	506.632184	210.918780	201.316837	410.059830	339.639225	216.881692	322.486090	330.858429	189.340120	241.990172	323.493535	249.145538	323.165315	307.969792	187.215722	109.513008	305.711735	212.833342	124.448998	227.983289	136.952955	62.394604	249.317872	424.644629	81.081716	309.469947	317.295858	44.846380	355.934652	350.558810	47.154861	242.608230	260.071432	821.934836	-11.634543	282.399134	739.159535	-5.454191	318.336367	739.005003	6.859839	257.261843	652.352915	5.554343	245.327884	516.781445	38.517208	238.153807	509.119542	138.572768	194.602418	399.923921	12.509811	209.889071	313.951923	22.571132	178.669657	230.937853	26.971080	242.100255	313.765418	43.356125	183.164319	108.786646	41.764923	211.757406	127.505684	115.030268	137.022520	57.366943	94.051677	425.054985	79.431371	39.443878	351.292700	48.181532	105.992685	312.836260	38.249782	-5.445374	
6	0.0300	265.993115	1528.840945	346.705706	253.941376	1534.941507	0.312817	200.138764	1571.633348	169.311512	343.089107	1483.976807	168.753361	233.234344	1283.109090	532.384268	302.379890	1138.425226	741.430705	199.519301	1291.767900	-195.210625	232.352421	1156.142995	-432.326139	174.659099	1035.578186	179.480887	316.241573	1095.172489	30.140849	318.444339	1076.692142	315.780783	369.214192	1029.665459	62.402317	375.281170	1020.645022	283.861058	198.175027	1068.284246	222.559043	195.578867	1072.312233	133.567481	269.477029	923.384400	333.709008	242.594542	953.657130	9.993168	272.985395	825.097512	350.052806	285.171204	736.217542	349.294527	251.064832	656.004116	337.355753	321.702743	732.519855	340.757787	254.267436	507.569671	311.979016	246.995653	506.679558	210.928601	201.315016	410.067012	339.654286	216.886367	322.487429	330.811284	189.335770	242.026259	323.506290	249.176149	323.167027	307.997406	187.204257	109.542746	305.721241	212.807031	124.475084	227.941812	136.825317	62.371151	249.284795	424.652557	81.067600	309.468866	317.303972	44.860192	355.964603	350.574823	47.201224	242.585831	260.085850	821.936210	-11.622742	282.477307	739.235318	-5.429689	318.468580	739.081079	6.778923	257.340478	652.409841	5.552146	245.361205	516.750507	38.530022	238.139104	509.142833	138.530058	194.660110	399.948205	12.471587	209.927268	313.948762	22.598556	178.708085	230.906174	26.990789	242.176191	313.829149	43.283541	183.159331	108.723484	41.739583	211.740508	127.523862	115.041490	136.932300	57.352910	94.035580	425.046496	79.401294	39.411904	351.272960	48.178437	106.009336	312.845661	38.237540	-5.437618	
